<svg width="725" height="426" viewBox="0 0 725 426" fill="none" xmlns="http://www.w3.org/2000/svg">
<g filter="url(#filter0_d_2018_157)">
<path d="M232 286.373L252.694 284.848L619.13 284.371L246.749 272.629C241.865 265.576 236.899 262.498 235.027 261.841C233.874 261.312 230.166 260.018 224.556 259.069C218.945 258.121 208.158 260.847 203.465 262.329L178.415 268.811L171.063 269.03L154.271 267.663C143.397 263.053 137.351 259.469 135.686 258.253C134.8 257.832 131.682 255.562 126.298 249.85C120.914 244.137 117.949 238.653 117.139 236.626C116.248 234.404 113.944 228.346 111.859 221.881C109.773 215.416 109.821 209.469 110.105 207.304C109.172 208.624 106.066 219.806 104.63 225.232C104.328 229.669 103.714 238.772 103.671 239.679C103.628 240.587 103.981 248.409 104.163 252.207C104.354 255.816 106.787 265.632 114.993 276.026C123.199 286.419 138.445 293.624 145.042 295.927C148.623 296.855 157.253 298.724 163.123 298.776C168.994 298.828 176.5 298.776 178.415 298.776L201.5 295.787L211 293L232 286.373Z" fill="#7C9CFF"/>
<path d="M162.802 265.511C168.141 267.584 176.8 266.555 180.462 265.782C179.278 265.915 175.199 265.532 168.362 262.933C161.526 260.335 156.849 253.481 155.365 250.379C154.279 248.433 152.295 242.901 153.042 236.344C153.789 229.786 155.729 225.578 156.606 224.293C158.416 218.241 165.063 216.075 168.159 215.749C170.429 215.667 176.032 216.009 180.286 218.03C184.54 220.052 186.925 223.272 187.585 224.63C188.508 226.189 189.642 227.115 186.797 218.34C183.951 209.565 176.358 203.445 172.916 201.481C171.51 200.562 167.189 198.424 161.155 197.228C155.122 196.031 149.003 197.407 146.697 198.245C146.407 196.716 145.914 192.979 146.261 190.267C146.607 187.555 147.48 185.589 147.873 184.944L149.974 180.781L140.075 188.836C134.434 193.115 129.763 205.586 128.132 211.287L127.498 224.614C127.164 231.646 131.432 241 133.607 244.798C134.865 246.941 138.951 252.497 145.235 257.571C151.519 262.644 159.565 264.978 162.802 265.511Z" fill="#7C9CFF"/>
<path d="M121.558 178.009C118.261 183.309 116.68 196.723 116.302 202.767C117.698 200.087 120.722 194.452 121.644 193.359C122.566 192.266 128.853 186.597 131.881 183.899C133.414 182.172 137.27 178.074 140.438 175.497C143.606 172.919 144.803 167.557 145.006 165.199C144.73 163.386 142.918 159.927 137.884 160.597C132.849 161.267 128.626 166.599 127.144 169.181C126.656 169.915 124.855 172.709 121.558 178.009Z" fill="#7C9CFF"/>
<path d="M155.376 192.974C155.713 192.688 156.084 192.382 156.486 192.058C159.749 190.217 166.927 190.881 170.404 191.415C173.262 192.309 180.312 193.478 185.65 191.004C190.988 188.529 188.117 184.869 186.014 183.348C185.666 183.047 183.341 182.368 176.831 182.059C170.814 181.772 161.385 188.12 156.486 192.058C156.034 192.313 155.658 192.616 155.376 192.974Z" fill="#7C9CFF"/>
<path d="M605.253 194L570.411 291.341C568.177 297.9 565.664 303.23 562.873 307.33C560.192 311.547 556.954 314.651 553.157 316.642C549.36 318.633 544.781 319.629 539.421 319.629C535.513 319.629 531.883 319.043 528.533 317.872C525.183 316.818 525.457 288.374 523 286.5C524.898 288.374 526 296 531 295.096C533.5 293 535.401 304.518 538.081 304.518C541.431 304.518 544.223 303.64 546.457 301.883C548.69 300.126 550.644 296.846 552.319 292.043L555.837 282.38L547.127 260.416L522 194H542.101L560.025 250.226L564.38 266.215L569.573 248.996L586.659 194H605.253Z" fill="#159B6E"/>
<path d="M503 116.5L504.614 240.273C504.614 244.256 505.173 247.243 506.289 249.234C507.518 251.226 509.751 252.221 512.99 252.221C514.777 252.221 516.284 252.104 517.513 251.87C518.741 251.518 520.249 250.991 522.035 250.288L520.193 263.818C518.629 264.755 516.563 265.516 513.995 266.102C511.538 266.688 509.193 266.98 506.959 266.98C499.142 266.98 493.782 264.755 490.878 260.304C487.975 255.735 486.523 249.644 486.523 242.03V138.189L503 106L486 90L488 94L493.5 101L503 116.5Z" fill="#159B6E"/>
<path d="M396 304.508V179.757H412.081L413.254 205.586L411.076 202.774C412.751 195.395 416.213 189.421 421.462 184.853C426.822 180.284 433.243 178 440.725 178C447.426 178 453.456 179.816 458.816 183.447C464.177 187.078 468.365 192.291 471.38 199.085C474.507 205.879 476.07 214.02 476.07 223.508C476.07 233.113 474.507 241.371 471.38 248.282C468.253 255.076 463.953 260.289 458.481 263.92C453.121 267.551 447.035 269.367 440.223 269.367C433.187 269.367 427.213 267.317 422.299 263.217C417.497 259 414.091 253.729 412.081 247.403L414.091 244.241V304.508H396ZM435.867 254.256C442.68 254.256 448.04 251.562 451.948 246.174C455.969 240.785 457.979 233.289 457.979 223.683C457.979 214.078 456.025 206.581 452.116 201.193C448.319 195.805 443.015 193.111 436.203 193.111C431.847 193.111 427.994 194.341 424.644 196.8C421.294 199.26 418.67 202.774 416.771 207.343C414.985 211.911 414.091 217.358 414.091 223.683C414.091 229.892 414.985 235.28 416.771 239.848C418.558 244.417 421.071 247.989 424.309 250.566C427.548 253.026 431.401 254.256 435.867 254.256Z" fill="#159B6E"/>
<path d="M383.106 178.371V266.223H365.015V178.371H383.106ZM374.563 163.963C370.543 163.963 367.416 162.967 365.183 160.976C363.061 158.868 362 155.881 362 152.015C362 151 363.361 145.5 364.861 143C366.361 140 372.341 129 376.361 129C379.361 135 380.861 136.5 383.776 142C385.898 143.991 386.959 148.15 386.959 152.015C386.959 155.881 385.898 158.868 383.776 160.976C381.655 162.967 378.584 163.963 374.563 163.963Z" fill="#159B6E"/>
<path d="M299.5 266V178.148H315.078L316.419 194.839C318.429 188.983 321.5 184.473 325.632 181.31C329.875 178.03 344.5 181.31 346.5 186C350 190.5 349.5 199.909 349 194.839C349 204.839 352.883 203.68 354 204.5L358 207.5L347.576 194.664C346.57 194.195 345.286 193.844 343.723 193.61C342.271 193.258 340.261 193.082 337.692 193.082C334.454 193.082 331.271 194.078 328.144 196.069C325.017 198.061 322.449 201.048 320.439 205.03C318.54 208.896 317.591 213.698 317.591 219.438V266H299.5Z" fill="#159B6E"/>
<path d="M262.003 162.95L278.003 163.95L278.049 163.953L278.05 163.999L280.12 264.723L280.121 264.773H263.941L263.939 264.726L263.036 247.918C262.118 250.259 260.943 252.417 259.507 254.387L259.506 254.386C256.71 258.257 253.243 261.25 249.104 263.362C244.964 265.474 240.434 266.53 235.513 266.53C228.803 266.53 222.761 264.712 217.393 261.075C212.024 257.438 207.775 252.218 204.645 245.417C201.514 238.615 199.95 230.466 199.95 220.973C199.95 211.128 201.57 202.803 204.812 196.001C208.054 189.2 212.416 184.038 217.896 180.519L218.422 180.184C223.873 176.771 229.849 175.064 236.35 175.063C243.507 175.063 249.494 177.235 254.306 181.577L254.763 181.977C257.837 184.726 260.225 188.027 261.933 191.875L261.95 163V162.947L262.003 162.95ZM240.537 190.274C233.517 190.275 228.004 192.962 223.994 198.337L223.993 198.336C220.093 203.713 218.142 211.198 218.142 220.797C218.142 230.396 220.094 237.881 223.994 243.258C227.893 248.633 233.239 251.319 240.035 251.319C244.38 251.319 248.166 250.093 251.396 247.641C254.737 245.07 257.301 241.447 259.085 236.769V236.768C260.98 232.09 261.929 226.474 261.929 219.919C261.929 213.715 261.036 208.392 259.252 203.948C257.468 199.504 254.961 196.115 251.731 193.779C248.502 191.443 244.771 190.274 240.537 190.274Z" fill="#159B6E" stroke="black" stroke-width="0.1"/>
<path d="M298 152.5C282 156.9 277.667 172.667 277.5 180V198L264 200L262 178.5V153C256 151.4 243.5 141.333 238 136.5C235.6 135.3 230.333 128 228 124.5L225 117C224.333 115.167 222.9 110.9 222.5 108.5C222.1 106.1 222 103.167 222 102L223 94.5C223 93.1667 222.9 88.6 222.5 81C222.1 73.4 224 71.1667 225 71C243.4 87.4 262.667 115.5 270 127.5C272 130.7 273.5 138.5 274 142L276 138L278.5 135.5C280.5 132.7 292 124 297.5 120L301 118.5L312 115C314 114.5 319 113.1 323 111.5C327 109.9 331.333 109.167 333 109C338.2 128.2 326.167 139.667 319.5 143C318.833 143.667 313.6 146.5 298 152.5Z" fill="#159B6E" stroke="#159B6E"/>
<path d="M330.019 125.935C330.243 125.653 331.491 124.659 332.087 124.197C331.795 126.362 332.198 127.464 332.357 127.832L332.535 128.473L332.712 129.114L334.044 132.968C334.126 133.152 334.307 133.811 334.372 134.973C334.437 136.136 334.103 137.682 333.855 138.217C333.75 138.442 333.357 139.831 331.901 140.503C330.373 141.209 329.043 141.098 328.163 140.369C328.126 140.338 327.469 140.016 326.766 138.325C326.033 136.558 326.195 135.646 326.216 135.042C326.238 134.439 326.377 133.235 326.588 132.156C326.834 130.896 327.282 130.368 327.473 129.831L328.473 128.055L329.319 126.816L330.019 125.935Z" fill="#7C9CFF"/>
<path d="M342.852 136.347C342.706 136.146 341.864 135.411 341.461 135.07C341.561 136.546 341.218 137.271 341.086 137.512L340.927 137.935L340.768 138.359L339.623 140.897C339.555 141.017 339.393 141.453 339.288 142.235C339.183 143.017 339.345 144.079 339.495 144.452C339.559 144.609 339.77 145.567 340.777 146.095C341.834 146.648 342.79 146.639 343.455 146.191C343.483 146.172 343.969 145.988 344.556 144.88C345.168 143.724 345.099 143.099 345.114 142.69C345.128 142.281 345.09 141.462 344.993 140.722C344.88 139.858 344.586 139.479 344.476 139.107L343.851 137.857L343.308 136.978L342.852 136.347Z" fill="#7C9CFF"/>
</g>
<defs>
<filter id="filter0_d_2018_157" x="99.6675" y="70.4675" width="523.462" height="257.162" filterUnits="userSpaceOnUse" color-interpolation-filters="sRGB">
<feFlood flood-opacity="0" result="BackgroundImageFix"/>
<feColorMatrix in="SourceAlpha" type="matrix" values="0 0 0 0 0 0 0 0 0 0 0 0 0 0 0 0 0 0 127 0" result="hardAlpha"/>
<feOffset dy="4"/>
<feGaussianBlur stdDeviation="2"/>
<feComposite in2="hardAlpha" operator="out"/>
<feColorMatrix type="matrix" values="0 0 0 0 0 0 0 0 0 0 0 0 0 0 0 0 0 0 0.25 0"/>
<feBlend mode="normal" in2="BackgroundImageFix" result="effect1_dropShadow_2018_157"/>
<feBlend mode="normal" in="SourceGraphic" in2="effect1_dropShadow_2018_157" result="shape"/>
</filter>
</defs>
</svg>
