<svg width="725" height="426" viewBox="0 0 725 426" fill="none" xmlns="http://www.w3.org/2000/svg">
<g filter="url(#filter0_d_12_251)">
<path d="M232 286.373L252.694 284.848L619.13 284.371L246.75 272.629C241.865 265.576 236.9 262.498 235.028 261.841C233.875 261.313 230.166 260.018 224.556 259.07C218.946 258.121 208.158 260.847 203.465 262.329L178.415 268.811L171.064 269.03L154.272 267.663C143.398 263.053 137.351 259.469 135.687 258.253C134.801 257.832 131.682 255.562 126.299 249.85C120.915 244.137 117.949 238.653 117.139 236.626C116.248 234.404 113.944 228.346 111.859 221.881C109.774 215.416 109.821 209.469 110.105 207.304C109.172 208.624 106.067 219.806 104.631 225.232C104.329 229.67 103.715 238.772 103.672 239.68C103.628 240.587 103.981 248.409 104.163 252.207C104.354 255.816 106.788 265.632 114.994 276.026C123.2 286.419 138.446 293.624 145.043 295.927C148.624 296.855 157.253 298.724 163.124 298.776C168.994 298.828 176.5 298.776 178.415 298.776L201.5 295.787L211 293L232 286.373Z" fill="#263B7A"/>
<path d="M162.803 265.511C168.142 267.584 176.801 266.555 180.463 265.782C179.278 265.915 175.2 265.532 168.363 262.933C161.526 260.335 156.849 253.481 155.366 250.379C154.28 248.433 152.295 242.901 153.042 236.344C153.789 229.786 155.729 225.578 156.606 224.293C158.417 218.241 165.063 216.075 168.16 215.749C170.43 215.667 176.032 216.009 180.286 218.03C184.541 220.052 186.925 223.272 187.586 224.63C188.508 226.189 189.642 227.115 186.797 218.34C183.952 209.566 176.358 203.445 172.917 201.481C171.51 200.562 167.189 198.424 161.156 197.228C155.123 196.031 149.003 197.407 146.697 198.245C146.408 196.716 145.915 192.979 146.261 190.267C146.608 187.555 147.481 185.589 147.874 184.944L149.975 180.781L140.076 188.836C134.434 193.115 129.763 205.586 128.132 211.287L127.499 224.614C127.164 231.646 131.432 241 133.608 244.798C134.865 246.942 138.951 252.498 145.235 257.571C151.52 262.644 159.565 264.978 162.803 265.511Z" fill="#263B7A"/>
<path d="M121.558 178.009C118.261 183.309 116.681 196.723 116.303 202.768C117.699 200.087 120.722 194.452 121.644 193.359C122.566 192.266 128.853 186.597 131.882 183.9C133.414 182.173 137.271 178.074 140.438 175.497C143.606 172.919 144.804 167.558 145.006 165.199C144.73 163.386 142.919 159.927 137.884 160.597C132.85 161.267 128.626 166.599 127.144 169.181C126.656 169.915 124.856 172.709 121.558 178.009Z" fill="#263B7A"/>
<path d="M155.377 192.974C155.713 192.688 156.085 192.382 156.487 192.058C159.75 190.217 166.927 190.881 170.405 191.415C173.262 192.309 180.312 193.478 185.65 191.004C190.988 188.529 188.117 184.869 186.014 183.348C185.666 183.047 183.342 182.368 176.831 182.059C170.814 181.772 161.386 188.12 156.487 192.058C156.035 192.313 155.658 192.616 155.377 192.974Z" fill="#263B7A"/>
<path d="M252.694 284.848C249.976 281.024 242.534 273.224 234.515 272.616C226.496 272.007 253.35 284.405 252.694 284.848ZM252.694 284.848L223.5 287L232 286.373L211 293L201.5 295.787L178.415 298.776C176.5 298.776 168.994 298.828 163.124 298.776C157.253 298.724 148.624 296.855 145.043 295.927C138.446 293.624 123.2 286.419 114.994 276.026C106.788 265.632 104.354 255.816 104.163 252.207C103.981 248.409 103.628 240.587 103.672 239.68C103.715 238.772 104.329 229.67 104.631 225.232C106.067 219.806 109.172 208.624 110.105 207.304C109.821 209.469 109.774 215.416 111.859 221.881C113.944 228.346 116.248 234.404 117.139 236.626C117.949 238.653 120.915 244.137 126.299 249.85C131.682 255.562 134.801 257.832 135.687 258.253C137.351 259.469 143.398 263.053 154.272 267.663L171.064 269.03L178.415 268.811L203.465 262.329C208.158 260.847 218.946 258.121 224.556 259.07C230.166 260.018 233.875 261.313 235.028 261.841C236.9 262.498 241.865 265.576 246.75 272.629M252.694 284.848C252.748 283.714 251.635 279.682 246.75 272.629M252.694 284.848L619.13 284.371L246.75 272.629M180.463 265.782C176.801 266.555 168.142 267.584 162.803 265.511C159.565 264.978 151.52 262.644 145.235 257.571C138.951 252.498 134.865 246.942 133.608 244.798C131.432 241 127.164 231.646 127.499 224.614C127.833 217.582 128.061 212.8 128.132 211.287C129.763 205.586 134.434 193.115 140.076 188.836L149.975 180.781L147.874 184.944C147.481 185.589 146.608 187.555 146.261 190.267C145.915 192.979 146.408 196.716 146.697 198.245C149.003 197.407 155.123 196.031 161.156 197.228C167.189 198.424 171.51 200.562 172.917 201.481C176.358 203.445 183.952 209.566 186.797 218.34C189.642 227.115 188.508 226.189 187.586 224.63C186.925 223.272 184.541 220.052 180.286 218.03C176.032 216.009 170.43 215.667 168.16 215.749C165.063 216.075 158.417 218.241 156.606 224.293C155.729 225.578 153.789 229.786 153.042 236.344C152.295 242.901 154.28 248.433 155.366 250.379C156.849 253.481 161.526 260.335 168.363 262.933C175.2 265.532 179.278 265.915 180.463 265.782ZM116.303 202.768C116.681 196.723 118.261 183.309 121.558 178.009C124.856 172.709 126.656 169.915 127.144 169.181C128.626 166.599 132.85 161.267 137.884 160.597C142.919 159.927 144.73 163.386 145.006 165.199C144.804 167.558 143.606 172.919 140.438 175.497C137.271 178.074 133.414 182.173 131.882 183.9C128.853 186.597 122.566 192.266 121.644 193.359C120.722 194.452 117.699 200.087 116.303 202.768ZM155.377 192.974C159.815 189.207 170.321 181.749 176.831 182.059C183.342 182.368 185.666 183.047 186.014 183.348C188.117 184.869 190.988 188.529 185.65 191.004C180.312 193.478 173.262 192.309 170.405 191.415C166.446 190.807 157.692 190.031 155.377 192.974Z" stroke="white"/>
<path d="M542.832 193L543.054 193.696L560.978 249.922L560.984 249.942L560.989 249.963L564.429 262.589L568.615 248.707L568.618 248.699L585.704 193.703L585.923 193H606.673L606.194 194.337L571.356 291.662C569.109 298.262 566.567 303.672 563.716 307.865C560.958 312.205 557.597 315.442 553.621 317.527C549.649 319.61 544.903 320.629 539.421 320.629C535.411 320.629 531.669 320.028 528.203 318.816V318.814C527.705 318.647 527.357 318.277 527.12 317.932C526.871 317.567 526.667 317.118 526.493 316.637C526.145 315.671 525.859 314.397 525.614 312.957C525.123 310.067 524.764 306.314 524.436 302.581C524.105 298.827 523.807 295.092 523.438 292.17C523.253 290.708 523.054 289.483 522.834 288.58C522.723 288.127 522.615 287.784 522.512 287.544C522.464 287.433 522.425 287.364 522.4 287.324C522.366 287.283 522.332 287.245 522.298 287.212L523.606 285.705C523.781 285.838 523.923 286.004 524.041 286.179C524.51 286.785 524.904 287.585 525.255 288.339C525.721 289.341 526.165 290.381 526.709 291.351C527.252 292.318 527.834 293.1 528.501 293.593C529.084 294.023 529.755 294.25 530.617 294.142C530.811 294.02 531.026 293.924 531.264 293.876C531.621 293.804 531.965 293.847 532.272 293.966C532.844 294.186 533.274 294.658 533.593 295.096C534.244 295.99 534.842 297.346 535.392 298.627C535.966 299.966 536.506 301.272 537.065 302.258C537.344 302.75 537.596 303.1 537.814 303.317C538.039 303.541 538.122 303.519 538.081 303.519C541.249 303.519 543.811 302.691 545.838 301.097C547.844 299.518 549.72 296.46 551.375 291.714L551.38 291.701L554.767 282.395L546.197 260.785L546.194 260.777L546.191 260.771L521.064 194.354L520.553 193H542.832Z" fill="#013503" stroke="white" stroke-width="2"/>
<path d="M505.614 240.273C505.614 244.181 506.166 246.956 507.151 248.726C508.134 250.304 509.961 251.222 512.99 251.222C514.715 251.222 516.14 251.109 517.279 250.896C518.458 250.556 519.92 250.045 521.669 249.357L523.257 248.733L523.026 250.424L521.184 263.953L521.119 264.429L520.707 264.676C519.023 265.685 516.846 266.478 514.217 267.077L514.216 267.076C511.697 267.676 509.277 267.98 506.96 267.98C498.975 267.98 493.206 265.702 490.041 260.85L490.034 260.84C486.995 256.059 485.523 249.76 485.523 242.03V137.947L485.633 137.733L498.925 111.765L492.678 101.573L487.214 94.6182L487.151 94.5381L487.105 94.4473L485.105 90.4473L486.686 89.2715L503.686 105.271L504.232 105.787L503.891 106.456L501.217 111.678L503.853 115.978L503.996 116.212L504 116.487L505.614 240.26V240.273Z" fill="#013503" stroke="white" stroke-width="2"/>
<path d="M440.726 177C447.618 177 453.845 178.872 459.377 182.619C464.914 186.37 469.214 191.74 472.294 198.679H472.293C475.49 205.632 477.07 213.918 477.07 223.508C477.07 233.219 475.49 241.624 472.291 248.694L472.288 248.7C469.096 255.636 464.685 261 459.041 264.747L459.042 264.748C453.507 268.497 447.224 270.366 440.223 270.366C432.978 270.366 426.77 268.249 421.658 263.984L421.648 263.977L421.64 263.969C419.066 261.709 416.884 259.154 415.091 256.309V305.508H395V178.757H413.037L413.08 179.712L413.681 192.938C415.522 189.58 417.896 186.631 420.805 184.099L420.812 184.092C426.366 179.359 433.022 177 440.726 177ZM436.202 194.11C432.049 194.11 428.406 195.279 425.236 197.606C422.061 199.938 419.539 203.29 417.697 207.718C415.97 212.14 415.091 217.454 415.091 223.684C415.091 229.799 415.971 235.058 417.702 239.484C419.435 243.914 421.85 247.328 424.922 249.775C427.968 252.086 431.6 253.256 435.867 253.256C442.368 253.256 447.423 250.708 451.139 245.586L451.146 245.575H451.147C454.994 240.42 456.978 233.162 456.979 223.684C456.979 214.2 455.047 206.937 451.307 201.78L451.299 201.77C447.697 196.657 442.702 194.11 436.202 194.11Z" fill="#013503" stroke="white" stroke-width="2"/>
<path d="M384.106 177.371V267.224H364.016V177.371H384.106ZM376.979 128L377.256 128.553C378.738 131.517 379.846 133.365 380.952 135.164C382.045 136.942 383.147 138.69 384.586 141.395C385.758 142.554 386.583 144.222 387.121 146.018C387.683 147.893 387.959 149.998 387.959 152.016C387.959 156.066 386.843 159.339 384.481 161.686L384.471 161.695L384.461 161.705C382.093 163.927 378.74 164.963 374.563 164.963C370.383 164.963 366.989 163.926 364.518 161.723L364.497 161.704L364.478 161.686C362.116 159.339 361 156.066 361 152.016C361 151.639 361.111 151.002 361.259 150.318C361.415 149.596 361.638 148.712 361.908 147.785C362.435 145.975 363.169 143.892 363.98 142.524C364.751 140.986 366.637 137.463 368.847 134.302C369.956 132.715 371.174 131.182 372.396 130.036C373.571 128.934 374.946 128 376.361 128H376.979Z" fill="#013503" stroke="white" stroke-width="2"/>
<path d="M316.001 177.147L316.075 178.067L317.078 190.567C319.06 186.418 321.703 183.057 325.023 180.516C326.334 179.505 328.299 179.084 330.361 179.001C332.464 178.916 334.841 179.177 337.126 179.69C339.41 180.203 341.648 180.978 343.463 181.945C345.185 182.863 346.691 184.043 347.36 185.48C349.235 187.958 349.993 191.606 350.244 193.899C350.309 194.494 350.343 195.02 350.352 195.437C350.359 195.777 350.349 196.15 350.291 196.421L358.776 206.869L357.4 208.3L353.408 205.306L353.361 205.283C353.325 205.268 353.264 205.245 353.167 205.215C353.077 205.187 352.978 205.159 352.854 205.124C352.734 205.09 352.595 205.05 352.449 205.005C351.854 204.819 351.101 204.515 350.39 203.835C349.174 202.672 348.287 200.615 348.06 196.846L346.951 195.482C346.087 195.11 344.969 194.808 343.574 194.599L343.53 194.592L343.487 194.581C342.148 194.257 340.229 194.082 337.692 194.082C334.671 194.082 331.672 195.009 328.682 196.913C325.735 198.79 323.277 201.626 321.331 205.48C319.522 209.169 318.591 213.808 318.591 219.438V267H298.5V177.147H316.001Z" fill="#013503" stroke="white" stroke-width="2"/>
<path d="M262.062 162.002L278.062 163.002L278.98 163.06L279 163.979L281.069 264.703L281.091 265.724H263.041L262.99 264.777L262.291 251.762C261.686 252.868 261.015 253.928 260.276 254.941C257.394 258.932 253.812 262.025 249.535 264.208C245.254 266.392 240.575 267.48 235.513 267.48C228.62 267.48 222.392 265.609 216.86 261.861C211.327 258.113 206.973 252.747 203.782 245.813C200.581 238.858 199 230.567 199 220.973C199 211.028 200.636 202.556 203.955 195.593C207.158 188.875 211.453 183.682 216.856 180.064L217.383 179.72C223.129 175.984 229.459 174.114 236.35 174.114C243.707 174.114 249.922 176.35 254.925 180.856L255.396 181.27C257.602 183.243 259.464 185.488 260.985 188.001L261 162.999L261.001 161.936L262.062 162.002ZM240.537 191.225C233.8 191.225 228.577 193.784 224.756 198.905C221.02 204.061 219.091 211.32 219.091 220.797C219.091 230.281 221.023 237.543 224.764 242.7C228.479 247.822 233.535 250.37 240.035 250.37C244.188 250.37 247.769 249.202 250.821 246.884C253.997 244.439 256.465 240.973 258.197 236.43L258.2 236.42L258.204 236.411C260.042 231.875 260.978 226.386 260.979 219.919C260.979 213.803 260.099 208.605 258.371 204.302C256.64 199.991 254.232 196.76 251.175 194.549C248.118 192.337 244.584 191.225 240.537 191.225Z" fill="#013503" stroke="white" stroke-width="2"/>
<path d="M298 152.5C282 156.9 277.667 172.667 277.5 180C277.5 182.8 279.5 259.667 279.5 264.5H264.5L262 178.5V153C256 151.4 243.5 141.333 238 136.5C235.6 135.3 230.333 128 228 124.5L225 117C224.333 115.167 222.9 110.9 222.5 108.5C222.1 106.1 222 103.167 222 102L223 94.5C223 93.1667 222.9 88.6 222.5 81C222.1 73.4 224 71.1667 225 71C243.4 87.4 262.667 115.5 270 127.5C272 130.7 273.5 138.5 274 142L276 138L278.5 135.5C280.5 132.7 292 124 297.5 120L301 118.5L312 115C314 114.5 319 113.1 323 111.5C327 109.9 331.333 109.167 333 109C338.2 128.2 326.167 139.667 319.5 143C318.833 143.667 313.6 146.5 298 152.5Z" fill="#013503" stroke="white" stroke-width="2"/>
<path d="M330.02 125.935C330.244 125.653 331.491 124.659 332.087 124.197C331.795 126.362 332.199 127.464 332.357 127.832L332.535 128.473L332.712 129.114L334.044 132.968C334.126 133.152 334.308 133.811 334.373 134.973C334.438 136.136 334.103 137.682 333.855 138.217C333.751 138.442 333.357 139.831 331.901 140.503C330.373 141.209 329.043 141.098 328.163 140.369C328.127 140.338 327.469 140.016 326.767 138.325C326.034 136.558 326.195 135.646 326.216 135.042C326.238 134.439 326.377 133.235 326.588 132.156C326.834 130.896 327.282 130.368 327.473 129.831L328.473 128.055L329.32 126.816L330.02 125.935Z" fill="#0035D5"/>
<path d="M342.852 136.347C342.706 136.146 341.864 135.411 341.462 135.07C341.562 136.546 341.218 137.271 341.086 137.512L340.927 137.935L340.768 138.359L339.624 140.897C339.555 141.017 339.393 141.453 339.288 142.235C339.183 143.017 339.345 144.079 339.496 144.452C339.559 144.609 339.77 145.567 340.777 146.095C341.834 146.648 342.79 146.639 343.455 146.191C343.483 146.172 343.969 145.988 344.556 144.88C345.169 143.724 345.099 143.099 345.114 142.69C345.129 142.281 345.09 141.462 344.993 140.722C344.88 139.858 344.587 139.479 344.477 139.107L343.851 137.857L343.308 136.978L342.852 136.347Z" fill="#0035D5"/>
</g>
<defs>
<filter id="filter0_d_12_251" x="99.168" y="69.9349" width="523.979" height="259.694" filterUnits="userSpaceOnUse" color-interpolation-filters="sRGB">
<feFlood flood-opacity="0" result="BackgroundImageFix"/>
<feColorMatrix in="SourceAlpha" type="matrix" values="0 0 0 0 0 0 0 0 0 0 0 0 0 0 0 0 0 0 127 0" result="hardAlpha"/>
<feOffset dy="4"/>
<feGaussianBlur stdDeviation="2"/>
<feComposite in2="hardAlpha" operator="out"/>
<feColorMatrix type="matrix" values="0 0 0 0 0 0 0 0 0 0 0 0 0 0 0 0 0 0 0.25 0"/>
<feBlend mode="normal" in2="BackgroundImageFix" result="effect1_dropShadow_12_251"/>
<feBlend mode="normal" in="SourceGraphic" in2="effect1_dropShadow_12_251" result="shape"/>
</filter>
</defs>
</svg>
